<?xml version="1.0" standalone="no"?>
<!DOCTYPE svg PUBLIC "-//W3C//DTD SVG 20010904//EN"
 "http://www.w3.org/TR/2001/REC-SVG-20010904/DTD/svg10.dtd">
<svg version="1.0" xmlns="http://www.w3.org/2000/svg"
 width="512.000000pt" height="512.000000pt" viewBox="0 0 512.000000 512.000000"
 preserveAspectRatio="xMidYMid meet">

<g transform="translate(0.000000,512.000000) scale(0.100000,-0.100000)"
fill="#000000" stroke="none">
<path d="M2495 5106 c-37 -17 -70 -52 -84 -89 -7 -17 -11 -123 -11 -270 0
-232 1 -244 23 -282 24 -43 91 -85 137 -85 45 0 113 42 138 85 22 39 22 46 20
297 -3 241 -4 258 -24 284 -11 15 -32 37 -46 47 -34 25 -113 32 -153 13z"/>
<path d="M813 4409 c-76 -22 -124 -111 -103 -191 10 -36 39 -71 193 -225 173
-173 184 -181 229 -188 107 -16 199 76 183 182 -7 45 -16 57 -178 222 -203
205 -236 225 -324 200z"/>
<path d="M4195 4401 c-25 -11 -105 -85 -212 -192 -160 -164 -172 -177 -178
-221 -18 -121 96 -217 208 -174 63 24 380 345 397 401 24 81 -27 172 -108 195
-50 13 -60 13 -107 -9z"/>
<path d="M2297 4030 c-581 -106 -1042 -535 -1186 -1105 -65 -258 -54 -572 29
-825 84 -258 247 -503 443 -666 147 -123 210 -192 254 -281 23 -45 47 -107 54
-138 l12 -55 653 0 653 0 16 58 c39 135 128 260 270 379 277 232 454 520 527
858 29 135 35 389 13 530 -87 556 -471 1013 -1000 1191 -151 50 -246 65 -445
70 -153 3 -204 0 -293 -16z m453 -521 c193 -31 357 -116 500 -259 111 -111
175 -211 219 -345 75 -225 66 -370 -27 -427 -107 -66 -242 16 -242 149 0 70
-34 193 -72 266 -43 81 -155 194 -235 235 -72 38 -196 72 -261 72 -175 0 -243
208 -97 296 45 27 106 31 215 13z"/>
<path d="M95 2706 c-94 -41 -124 -168 -58 -247 47 -55 68 -59 335 -59 233 0
245 1 283 23 43 24 85 91 85 137 0 46 -42 113 -85 137 -38 22 -50 23 -285 22
-181 0 -253 -3 -275 -13z"/>
<path d="M4465 2698 c-43 -25 -85 -93 -85 -138 0 -45 42 -113 85 -138 39 -22
46 -22 297 -20 283 3 281 3 332 72 29 39 29 133 0 172 -51 69 -49 69 -332 72
-251 2 -258 2 -297 -20z"/>
<path d="M1110 1313 c-16 -3 -93 -73 -207 -186 -200 -200 -215 -224 -193 -306
14 -52 75 -107 128 -116 71 -12 110 15 299 206 162 165 171 177 178 222 10 68
-23 134 -85 165 -43 21 -67 24 -120 15z"/>
<path d="M3893 1301 c-74 -35 -108 -118 -79 -194 24 -63 345 -380 401 -397
115 -34 229 80 195 195 -9 31 -47 75 -173 203 -89 90 -174 172 -189 183 -40
29 -105 33 -155 10z"/>
<path d="M1922 478 c4 -131 9 -174 26 -220 40 -110 103 -180 202 -227 l55 -26
355 0 355 0 61 28 c77 36 154 113 191 192 27 57 28 68 31 238 l4 177 -642 0
-642 0 4 -162z"/>
</g>
</svg>
